<svg width="169" height="99" viewBox="0 0 169 99" fill="none" xmlns="http://www.w3.org/2000/svg">
<path d="M19.9693 2.01966L45.7625 14.0369L61.3665 27.0936L45.7625 36.01C42.2599 38.2391 38.7571 39.5129 34.6173 37.2838L7.55004 23.3554C-7.0983 14.1855 4.36616 -5.55768 19.9693 2.01966Z" fill="#F9B445"/>
<circle cx="57.2256" cy="16.585" r="11.1455" fill="url(#paint0_linear_212_79)"/>
<circle cx="89.7061" cy="16.585" r="11.1455" fill="url(#paint1_linear_212_79)"/>
<circle cx="89.7061" cy="49.0674" r="11.1455" fill="url(#paint2_linear_212_79)"/>
<circle cx="122.188" cy="16.585" r="11.1455" fill="url(#paint3_linear_212_79)"/>
<circle cx="122.188" cy="49.0674" r="11.1455" fill="url(#paint4_linear_212_79)"/>
<circle cx="122.188" cy="87.2803" r="11.1455" fill="url(#paint5_linear_212_79)"/>
<circle cx="157.855" cy="16.585" r="11.1455" fill="url(#paint6_linear_212_79)"/>
<circle cx="157.855" cy="49.0674" r="11.1455" fill="url(#paint7_linear_212_79)"/>
<circle cx="157.855" cy="87.2803" r="11.1455" fill="url(#paint8_linear_212_79)"/>
<defs>
<linearGradient id="paint0_linear_212_79" x1="57.2256" y1="5.43945" x2="57.2256" y2="27.7305" gradientUnits="userSpaceOnUse">
<stop stop-color="#F9B445"/>
<stop offset="1" stop-color="#E3882F"/>
</linearGradient>
<linearGradient id="paint1_linear_212_79" x1="89.7061" y1="5.43945" x2="89.7061" y2="27.7305" gradientUnits="userSpaceOnUse">
<stop stop-color="#F9B445"/>
<stop offset="1" stop-color="#E3882F"/>
</linearGradient>
<linearGradient id="paint2_linear_212_79" x1="89.7061" y1="37.9219" x2="89.7061" y2="60.2129" gradientUnits="userSpaceOnUse">
<stop stop-color="#F9B445"/>
<stop offset="1" stop-color="#E3882F"/>
</linearGradient>
<linearGradient id="paint3_linear_212_79" x1="122.188" y1="5.43945" x2="122.188" y2="27.7305" gradientUnits="userSpaceOnUse">
<stop stop-color="#F9B445"/>
<stop offset="1" stop-color="#E3882F"/>
</linearGradient>
<linearGradient id="paint4_linear_212_79" x1="122.188" y1="37.9219" x2="122.188" y2="60.2129" gradientUnits="userSpaceOnUse">
<stop stop-color="#F9B445"/>
<stop offset="1" stop-color="#E3882F"/>
</linearGradient>
<linearGradient id="paint5_linear_212_79" x1="122.188" y1="76.1348" x2="122.188" y2="98.4258" gradientUnits="userSpaceOnUse">
<stop stop-color="#F9B445"/>
<stop offset="1" stop-color="#E3882F"/>
</linearGradient>
<linearGradient id="paint6_linear_212_79" x1="157.855" y1="5.43945" x2="157.855" y2="27.7305" gradientUnits="userSpaceOnUse">
<stop stop-color="#F9B445"/>
<stop offset="1" stop-color="#E3882F"/>
</linearGradient>
<linearGradient id="paint7_linear_212_79" x1="157.855" y1="37.9219" x2="157.855" y2="60.2129" gradientUnits="userSpaceOnUse">
<stop stop-color="#F9B445"/>
<stop offset="1" stop-color="#E3882F"/>
</linearGradient>
<linearGradient id="paint8_linear_212_79" x1="157.855" y1="76.1348" x2="157.855" y2="98.4258" gradientUnits="userSpaceOnUse">
<stop stop-color="#F9B445"/>
<stop offset="1" stop-color="#E3882F"/>
</linearGradient>
</defs>
</svg>
