<svg width="127" height="139" viewBox="0 0 127 139" fill="none" xmlns="http://www.w3.org/2000/svg">
<path d="M119.736 96.1091C143.173 38.7893 98.0809 10.7662 72.9238 10.7656C127.696 67.5755 78.5497 111.712 47.1299 126.68C82.4771 138.144 109.227 119.675 119.736 96.1091Z" fill="#E3882F"/>
<ellipse cx="62.9685" cy="69.4098" rx="50.7619" ry="59.7578" transform="rotate(12.3044 62.9685 69.4098)" fill="#F9B445"/>
<ellipse cx="62.9693" cy="69.4101" rx="42.2636" ry="49.7534" transform="rotate(12.3044 62.9693 69.4101)" fill="#E3882F"/>
<path d="M49.3599 99.2933L56.0472 81.4605L40.125 75.7285L36.3037 86.2372L39.1697 95.472L49.3599 99.2933Z" fill="#F9B445"/>
<path d="M52.7499 100.301L59.0713 82.3347L74.9588 88.162L71.1422 98.6723L63.016 103.913L52.7499 100.301Z" fill="#F9B445"/>
<path d="M63.371 62.0365L47.4489 56.9414L41.3984 72.5451L57.0022 77.9587L63.371 62.0365Z" fill="#F9B445"/>
<path d="M82.4775 68.4047L66.5553 63.3096L60.5049 78.9133L76.1086 84.3269L82.4775 68.4047Z" fill="#F9B445"/>
<path d="M75.1522 39.4277L68.1465 58.5344L86.092 63.9479L89.1638 52.4839L86.6162 42.4995L75.1522 39.4277Z" fill="#F9B445"/>
<path d="M64.3253 57.8959L71.9679 37.8339L60.1855 34.3311L52.2244 42.4232L49.3584 53.1192L64.3253 57.8959Z" fill="#F9B445"/>
</svg>
